<svg width="16.000000" height="12.000000" viewBox="0 0 16 12" fill="none" xmlns="http://www.w3.org/2000/svg" xmlns:xlink="http://www.w3.org/1999/xlink">
	<desc>
			Created with Pixso.
	</desc>
	<defs>
		<clipPath id="clip1_507">
			<rect id="Menu" width="16.000000" height="12.000000" fill="white" fill-opacity="0"/>
		</clipPath>
	</defs>
	<rect id="Menu" width="16.000000" height="12.000000" fill="#FFFFFF" fill-opacity="0"/>
	<g clip-path="url(#clip1_507)">
		<path id="Rectangle path" d="M1 0L15 0C15.55 0 16 0.44 16 1C16 1.55 15.55 2 15 2L1 2C0.44 2 0 1.55 0 1C0 0.44 0.44 0 1 0Z" fill="#FFFFFF" fill-opacity="1.000000" fill-rule="evenodd"/>
		<path id="Rectangle path Copy" d="M1 5L15 5C15.55 5 16 5.44 16 6C16 6.55 15.55 7 15 7L1 7C0.44 7 0 6.55 0 6C0 5.44 0.44 5 1 5Z" fill="#FFFFFF" fill-opacity="1.000000" fill-rule="evenodd"/>
		<path id="Rectangle path Copy 2" d="M1 10L15 10C15.55 10 16 10.44 16 11C16 11.55 15.55 12 15 12L1 12C0.44 12 0 11.55 0 11C0 10.44 0.44 10 1 10Z" fill="#FFFFFF" fill-opacity="1.000000" fill-rule="evenodd"/>
	</g>
</svg>
